# xmcd
# 
# Track frame offsets:
#     150
#     15969
#     33089
#     48559
#     63071
#     79970
#     91335
#     109750
#     128609
#     147764
#     163982
#     180887
#     197864
#     214211
#     237323
#     258061
#     274656
#     297420
#     314109
#     329637
# 
# Disc length: 4574
# 
# Revision: 1
# Processed by: cddbd v1.5.2PL0 Copyright (c) Steve Scherf et al.
# Submitted via: fre:ac v1.0.31
# 
DISCID=1e11dc14
DTITLE=Various Artist - 90 Les années cultes Les Tubes CD 2
DYEAR=2008
DGENRE=Country
TTITLE0=Gala - Freed from desire
TTITLE1=Los del Mar - macarena
TTITLE2=Cunnie William - Saturday
TTITLE3=Benny B - Vous etes fous
TTITLE4=Boris - Soirée disco
TTITLE5=Elmer Food Beat - Daniela
TTITLE6=Da Hool - Meet her at the love parade
TTITLE7=Robin S - Luv 4 luv
TTITLE8=Haddaway - Rock my heart
TTITLE9=49 Ers - Die Walkure
TTITLE10=Space Masters - Jumping to the party
TTITLE11=Ann Lee - Ann Lee - Two times
TTITLE12=Confetti's - The sound of C...
TTITLE13=Sueno Latino Valeria Vix - Viclosa
TTITLE14=Double Dee - Found love
TTITLE15=East Side Beat - Ride like the wind
TTITLE16=Heller 'N'Farley Project - Ultra Flava
TTITLE17=Jestofunk - Say it again
TTITLE18=Josh Wink aka Winx - Don't laugh
TTITLE19=Juice T - Love U for life
EXTD=
EXTT0=
EXTT1=
EXTT2=
EXTT3=
EXTT4=
EXTT5=
EXTT6=
EXTT7=
EXTT8=
EXTT9=
EXTT10=
EXTT11=
EXTT12=
EXTT13=
EXTT14=
EXTT15=
EXTT16=
EXTT17=
EXTT18=
EXTT19=
PLAYORDER=
